<?xml version="1.0" standalone="no"?>
<!DOCTYPE svg PUBLIC "-//W3C//DTD SVG 20010904//EN"
 "http://www.w3.org/TR/2001/REC-SVG-20010904/DTD/svg10.dtd">
<svg version="1.0" xmlns="http://www.w3.org/2000/svg"
 width="225.000000pt" height="225.000000pt" viewBox="0 0 225.000000 225.000000"
 preserveAspectRatio="xMidYMid meet">

<g transform="translate(0.000000,225.000000) scale(0.100000,-0.100000)"
fill="#000000" stroke="none">
<path d="M0 1125 l0 -1125 33 0 c22 0 28 3 18 9 -9 6 -10 10 -2 16 7 3 9 15 6
25 -3 10 -1 21 4 24 6 4 8 13 5 20 -7 19 60 156 91 185 14 13 25 27 25 32 0
12 60 109 81 132 20 22 59 15 59 -10 0 -11 -3 -13 -13 -5 -9 8 -12 -4 -11 -56
1 -70 16 -91 41 -56 16 22 17 91 1 96 -6 2 5 12 24 21 20 9 39 27 42 39 6 21
9 19 28 -19 12 -24 28 -43 35 -43 7 0 13 -7 13 -15 0 -8 5 -15 10 -15 6 0 10
-5 10 -11 0 -5 -4 -7 -10 -4 -5 3 -10 -3 -10 -14 0 -16 -6 -21 -25 -21 -14 0
-25 -4 -25 -9 0 -6 -14 -18 -30 -28 -35 -20 -36 -27 -12 -51 15 -15 41 -20
132 -25 73 -4 117 -11 123 -19 6 -9 7 -7 3 5 -3 10 -6 25 -6 33 0 8 -6 14 -14
14 -8 0 -17 13 -21 29 -3 16 -15 39 -26 52 -10 12 -19 28 -19 35 0 7 -18 32
-40 54 -22 22 -40 47 -40 55 0 8 -4 15 -9 15 -5 0 -12 8 -15 18 -16 43 -39 73
-52 68 -9 -4 -14 2 -14 15 0 11 -8 23 -17 26 -28 10 -33 24 -33 86 0 53 2 57
23 57 26 0 28 -3 97 -120 28 -47 78 -114 110 -150 33 -36 63 -75 66 -87 3 -13
14 -23 23 -23 10 0 24 -11 31 -25 15 -29 30 -33 30 -8 0 14 3 14 20 -5 11 -12
20 -26 20 -32 0 -6 8 -14 18 -17 42 -16 105 -109 100 -146 -2 -17 4 -22 32
-28 47 -10 223 -14 237 -6 5 3 42 18 81 32 l71 26 64 -23 c58 -20 72 -21 153
-12 120 12 168 8 159 -14 -4 -9 -10 -41 -13 -70 l-4 -52 296 0 296 0 0 148 c0
112 -3 149 -12 149 -7 0 -59 10 -116 23 -95 22 -103 25 -97 44 3 12 7 73 9
136 2 104 5 120 30 165 24 44 27 59 24 124 l-3 73 49 27 c27 14 53 33 57 41 4
8 19 40 33 71 l26 56 0 397 0 397 -29 -33 c-16 -18 -36 -50 -44 -70 -9 -21
-20 -38 -25 -38 -4 0 -24 12 -43 26 -48 36 -95 54 -142 54 -43 0 -63 13 -151
93 l-49 44 -111 7 c-61 4 -114 11 -118 15 -4 4 -3 22 2 41 12 43 12 158 0 120
-4 -14 -8 -38 -9 -55 -1 -16 -6 -47 -12 -67 l-10 -38 -62 0 c-41 0 -74 6 -97
18 -34 19 -35 19 -92 -5 -62 -25 -88 -28 -103 -14 -6 5 -35 12 -65 15 -134 12
-172 22 -191 47 -11 13 -23 29 -27 34 -4 6 -22 33 -39 62 -34 55 -54 82 -90
120 l-22 23 -361 0 -360 0 0 -1125z m1540 300 c6 -19 29 -61 50 -94 37 -57 41
-61 109 -81 39 -11 83 -32 99 -45 16 -13 33 -21 37 -17 5 4 5 1 1 -5 -5 -9
-32 -13 -77 -13 l-69 0 1 -32 c1 -30 2 -31 8 -8 6 22 12 25 51 25 44 0 45 -1
48 -34 2 -21 0 -31 -7 -26 -6 3 -11 17 -11 31 0 13 -4 24 -10 24 -5 0 -10 -14
-10 -31 0 -17 -4 -28 -10 -24 -5 3 -10 17 -10 31 0 13 -4 24 -10 24 -5 0 -10
-13 -10 -30 0 -23 -3 -28 -17 -23 -10 4 -14 2 -10 -4 4 -7 43 -11 94 -11 132
0 140 -1 155 -15 19 -19 75 -57 83 -57 4 0 4 16 1 35 -7 35 -7 35 29 35 23 0
35 -5 35 -14 0 -23 -42 -126 -51 -126 -5 0 -21 12 -36 28 -50 49 -59 53 -191
66 -71 8 -138 18 -148 23 -30 15 -138 2 -150 -18 -3 -5 -16 -9 -30 -9 -28 0
-101 -62 -116 -100 -6 -14 -14 -60 -18 -104 -6 -69 -10 -81 -36 -102 -22 -19
-37 -23 -62 -18 l-33 5 7 -50 c5 -42 4 -52 -10 -57 -9 -4 -24 0 -34 8 -9 8
-25 18 -35 21 -21 8 -34 36 -20 46 25 16 32 48 17 70 -15 20 -14 25 9 60 13
20 36 60 50 87 39 76 105 172 127 184 12 7 20 21 20 38 1 23 2 25 11 9 6 -9 7
-26 4 -37 -9 -29 2 -42 26 -30 10 6 19 14 19 19 0 5 8 26 17 47 9 22 16 42 15
45 -1 4 8 9 18 12 20 5 20 5 1 -20 -19 -24 -19 -44 2 -71 6 -8 37 -12 96 -11
112 2 121 4 121 37 0 42 -11 50 -69 50 -39 1 -57 5 -63 16 -5 9 -18 16 -29 16
-20 0 -20 1 -3 29 16 26 16 33 4 58 -37 75 -63 224 -45 254 8 13 43 -50 65
-116z m-465 -92 c-4 -11 -9 -13 -16 -6 -6 6 -6 19 2 39 12 28 13 28 17 6 2
-13 1 -31 -3 -39z m995 -118 c0 -14 1 -28 3 -32 1 -4 -10 -9 -25 -10 -33 -2
-33 0 -11 38 21 36 33 37 33 4z m-542 -46 c-10 -7 -10 -9 0 -9 7 0 12 -13 12
-33 0 -31 -2 -33 -37 -32 -34 0 -38 3 -41 28 -3 22 1 30 17 34 12 3 21 11 21
18 0 8 8 11 21 8 16 -4 17 -8 7 -14z m-324 -38 c4 -49 -10 -54 -23 -8 l-9 32
-1 -32 c-1 -18 -5 -33 -11 -33 -5 0 -10 5 -10 11 0 8 -5 8 -15 -1 -16 -13 -45
-7 -45 9 0 5 10 7 23 5 22 -5 22 -4 -1 6 -13 5 -22 16 -20 22 6 16 48 23 48 9
0 -6 -8 -8 -17 -5 -15 5 -15 3 2 -11 19 -15 20 -15 23 2 2 16 40 43 50 37 2
-1 5 -20 6 -43z m-992 -2 c5 -32 -9 -46 -37 -35 -22 8 -18 31 8 45 l22 11 -24
-6 c-16 -4 -21 -3 -17 5 15 24 44 12 48 -20z m58 14 c1 -17 1 -17 14 0 20 27
25 20 13 -18 -13 -43 -22 -44 -36 -4 -13 39 -13 39 -1 39 6 0 10 -8 10 -17z
m90 -3 c0 -14 -7 -20 -22 -21 -22 -1 -22 -1 2 -9 21 -6 22 -8 8 -15 -23 -9
-38 2 -38 29 0 27 7 36 32 36 11 0 18 -7 18 -20z m66 9 c4 -8 0 -9 -15 -4 -17
5 -21 2 -21 -14 0 -29 28 -26 42 4 13 30 51 31 56 3 2 -13 -3 -18 -20 -19 -23
-1 -23 -1 2 -9 22 -6 23 -8 7 -15 -9 -4 -23 -2 -30 3 -8 7 -18 7 -27 2 -8 -6
-21 -10 -27 -10 -15 0 -28 44 -18 59 8 14 42 14 51 0z m120 0 c4 -8 -1 -9 -17
-4 l-24 6 25 -20 c19 -15 22 -23 13 -32 -19 -19 -40 -3 -41 30 0 24 4 31 18
31 10 0 22 -5 26 -11z m69 -39 c8 0 16 12 18 28 3 21 4 19 6 -11 1 -34 -1 -38
-21 -35 -19 2 -23 10 -24 38 -1 26 -1 28 3 8 2 -16 10 -28 18 -28z m93 13 c2
-19 -1 -33 -7 -33 -6 0 -11 14 -11 30 0 17 -4 30 -10 30 -5 0 -10 -13 -10 -30
0 -16 -4 -30 -10 -30 -5 0 -10 16 -10 36 0 33 2 35 28 32 22 -2 28 -8 30 -35z
m70 11 c4 -25 -22 -49 -43 -40 -15 5 -21 47 -8 60 14 14 48 1 51 -20z m67 13
c12 30 17 -2 5 -33 l-12 -29 -13 25 c-19 34 -20 62 -1 37 13 -17 14 -17 21 0z
m75 9 c0 -2 3 -11 6 -20 5 -12 -1 -16 -22 -17 -29 -1 -29 -1 -4 -9 21 -6 22
-8 8 -15 -9 -4 -22 -4 -28 0 -11 7 -14 48 -3 58 7 8 43 10 43 3z m158 -25 c2
-13 -1 -28 -6 -33 -15 -15 -52 1 -52 22 0 22 -30 36 -41 18 -10 -16 0 -31 17
-24 8 3 14 -1 14 -10 0 -22 -44 -14 -48 9 -7 37 5 46 60 44 48 -2 53 -4 56
-26z m194 -6 c4 -33 2 -36 -21 -33 -33 4 -38 31 -9 46 l23 12 -24 -6 c-16 -4
-21 -3 -17 5 4 6 15 11 25 11 14 0 20 -9 23 -35z m64 24 c4 -8 -1 -9 -17 -4
l-24 6 25 -20 c19 -15 22 -23 14 -31 -15 -15 -46 -9 -52 9 -3 10 2 11 19 6
l24 -7 -23 17 c-12 9 -20 21 -17 26 8 13 42 11 51 -2z m69 -2 c4 11 9 13 12 6
6 -16 -24 -83 -38 -83 -9 0 -9 3 0 14 9 11 9 20 2 35 -16 29 -13 50 3 28 13
-17 14 -17 21 0z m201 2 c4 -8 0 -9 -15 -4 -17 5 -21 2 -21 -14 0 -29 28 -26
42 4 13 30 51 31 56 3 2 -13 -3 -18 -20 -19 -23 -1 -23 -1 2 -9 22 -6 23 -8 7
-15 -10 -4 -23 -3 -29 3 -7 7 -16 7 -28 -1 -31 -18 -69 31 -43 56 10 11 41 8
49 -4z m292 -26 c-1 -37 -1 -37 -5 -5 -2 17 -8 32 -13 32 -5 0 -14 -15 -19
-32 l-9 -33 -1 33 c-1 17 -5 32 -11 32 -5 0 -14 -15 -19 -32 l-9 -33 -1 38 -1
37 45 0 45 0 -2 -37z m100 0 c-1 -37 -1 -37 -5 -5 -5 37 -23 44 -23 8 0 -14
-4 -28 -10 -31 -6 -4 -10 7 -10 24 0 17 -4 31 -10 31 -5 0 -10 -11 -10 -24 0
-14 -4 -28 -10 -31 -6 -4 -10 8 -10 29 0 36 0 36 45 36 l45 0 -2 -37z m110 0
c2 -19 -1 -33 -7 -33 -6 0 -11 14 -11 30 0 17 -4 30 -10 30 -5 0 -10 -14 -10
-31 0 -17 -4 -28 -10 -24 -5 3 -10 17 -10 31 0 13 -4 24 -10 24 -5 0 -10 -14
-10 -31 0 -17 -4 -28 -10 -24 -5 3 -10 20 -10 36 0 30 1 30 48 27 45 -3 47 -4
50 -35z m-182 -892 c-9 -17 -22 -31 -29 -31 -7 0 -24 -14 -39 -30 -23 -27 -88
-53 -88 -36 0 4 15 20 34 36 19 17 36 40 40 53 6 24 75 61 89 47 5 -4 1 -22
-7 -39z"/>
<path d="M1477 1143 c-13 -12 -7 -33 8 -33 8 0 15 9 15 20 0 20 -11 26 -23 13z"/>
<path d="M450 1140 c0 -5 5 -10 10 -10 6 0 10 5 10 10 0 6 -4 10 -10 10 -5 0
-10 -4 -10 -10z"/>
<path d="M737 1143 c-13 -12 -7 -33 8 -33 8 0 15 9 15 20 0 20 -11 26 -23 13z"/>
<path d="M890 1140 c0 -5 5 -10 10 -10 6 0 10 5 10 10 0 6 -4 10 -10 10 -5 0
-10 -4 -10 -10z"/>
<path d="M1037 1135 c-8 -18 11 -31 25 -17 11 11 3 32 -12 32 -4 0 -10 -7 -13
-15z"/>
<path d="M1630 1140 c0 -5 5 -10 10 -10 6 0 10 5 10 10 0 6 -4 10 -10 10 -5 0
-10 -4 -10 -10z"/>
<path d="M1212 2233 c5 -26 44 -28 58 -4 10 19 8 21 -25 21 -29 0 -36 -3 -33
-17z"/>
<path d="M1335 2209 c-9 -53 1 -61 20 -16 19 45 19 57 1 57 -9 0 -17 -16 -21
-41z"/>
<path d="M2100 832 c0 -12 6 -27 14 -35 8 -8 16 -33 18 -57 3 -39 6 -43 43
-56 73 -25 75 -24 75 65 0 44 -3 82 -7 84 -5 3 -38 8 -75 12 -64 6 -68 5 -68
-13z"/>
<path d="M568 163 c7 -3 16 -2 19 1 4 3 -2 6 -13 5 -11 0 -14 -3 -6 -6z"/>
<path d="M627 123 c-14 -13 -7 -33 11 -33 10 0 23 -5 30 -12 9 -9 12 -9 12 0
0 7 -4 12 -9 12 -5 0 -11 9 -14 20 -5 20 -18 26 -30 13z"/>
<path d="M298 3 c6 -2 18 -2 25 0 6 3 1 5 -13 5 -14 0 -19 -2 -12 -5z"/>
</g>
</svg>
